custom-analysis
version=1
nRows=4
nColumns=146
inDegrees=no

This file contains tibia displacement and acting force.

Units are S.I. units (seconds, meters, Newtons, ...)
Angles are in degrees.

endheader
time	APT	SIT	knee_angle	aACL_R_force	pACL_R_force	aPCL_R_force	pPCL_R_force	aMCL_R_force	mMCL_R_force	pMCL_R_force	aLCL_R_force	mLCL_R_force	pLCL_R_force	aPCL_L_force	pPCL_L_force	aMCL_L_force	aLCL_L_force	aACL_R_length	pACL_R_length	aPCL_R_length	pPCL_R_length	aMCL_R_length	mMCL_R_length	pMCL_R_length	aLCL_R_length	mLCL_R_length	pLCL_R_length	aPCL_L_length	pPCL_L_length	aMCL_L_length	aLCL_L_length	aACL_R_strain	pACL_R_strain	aPCL_R_strain	pPCL_R_strain	aMCL_R_strain	mMCL_R_strain	pMCL_R_strain	aLCL_R_strain	mLCL_R_strain	pLCL_R_strain	aPCL_L_strain	pPCL_L_strain	aMCL_L_strain	aLCL_L_strain	femur_lat_meniscii_l.femur_lat_l.force.X	femur_lat_meniscii_l.femur_lat_l.force.Y	femur_lat_meniscii_l.femur_lat_l.force.Z	femur_lat_meniscii_l.femur_lat_l.torque.X	femur_lat_meniscii_l.femur_lat_l.torque.Y	femur_lat_meniscii_l.femur_lat_l.torque.Z	femur_lat_meniscii_l.meniscus_lat_l.force.X	femur_lat_meniscii_l.meniscus_lat_l.force.Y	femur_lat_meniscii_l.meniscus_lat_l.force.Z	femur_lat_meniscii_l.meniscus_lat_l.torque.X	femur_lat_meniscii_l.meniscus_lat_l.torque.Y	femur_lat_meniscii_l.meniscus_lat_l.torque.Z	femur_med_meniscii_l.femur_med_l.force.X	femur_med_meniscii_l.femur_med_l.force.Y	femur_med_meniscii_l.femur_med_l.force.Z	femur_med_meniscii_l.femur_med_l.torque.X	femur_med_meniscii_l.femur_med_l.torque.Y	femur_med_meniscii_l.femur_med_l.torque.Z	femur_med_meniscii_l.meniscus_med_l.force.X	femur_med_meniscii_l.meniscus_med_l.force.Y	femur_med_meniscii_l.meniscus_med_l.force.Z	femur_med_meniscii_l.meniscus_med_l.torque.X	femur_med_meniscii_l.meniscus_med_l.torque.Y	femur_med_meniscii_l.meniscus_med_l.torque.Z	femur_lat_meniscii_r.femur_lat_r.force.X	femur_lat_meniscii_r.femur_lat_r.force.Y	femur_lat_meniscii_r.femur_lat_r.force.Z	femur_lat_meniscii_r.femur_lat_r.torque.X	femur_lat_meniscii_r.femur_lat_r.torque.Y	femur_lat_meniscii_r.femur_lat_r.torque.Z	femur_lat_meniscii_r.meniscus_lat_r.force.X	femur_lat_meniscii_r.meniscus_lat_r.force.Y	femur_lat_meniscii_r.meniscus_lat_r.force.Z	femur_lat_meniscii_r.meniscus_lat_r.torque.X	femur_lat_meniscii_r.meniscus_lat_r.torque.Y	femur_lat_meniscii_r.meniscus_lat_r.torque.Z	femur_med_meniscii_r.femur_med_r.force.X	femur_med_meniscii_r.femur_med_r.force.Y	femur_med_meniscii_r.femur_med_r.force.Z	femur_med_meniscii_r.femur_med_r.torque.X	femur_med_meniscii_r.femur_med_r.torque.Y	femur_med_meniscii_r.femur_med_r.torque.Z	femur_med_meniscii_r.meniscus_med_r.force.X	femur_med_meniscii_r.meniscus_med_r.force.Y	femur_med_meniscii_r.meniscus_med_r.force.Z	femur_med_meniscii_r.meniscus_med_r.torque.X	femur_med_meniscii_r.meniscus_med_r.torque.Y	femur_med_meniscii_r.meniscus_med_r.torque.Z	femur_med_tibia_l.tibia_upper_l.force.X	femur_med_tibia_l.tibia_upper_l.force.Y	femur_med_tibia_l.tibia_upper_l.force.Z	femur_med_tibia_l.tibia_upper_l.torque.X	femur_med_tibia_l.tibia_upper_l.torque.Y	femur_med_tibia_l.tibia_upper_l.torque.Z	femur_med_tibia_l.femur_med_l.force.X	femur_med_tibia_l.femur_med_l.force.Y	femur_med_tibia_l.femur_med_l.force.Z	femur_med_tibia_l.femur_med_l.torque.X	femur_med_tibia_l.femur_med_l.torque.Y	femur_med_tibia_l.femur_med_l.torque.Z	femur_lat_tibia_l.tibia_upper_l.force.X	femur_lat_tibia_l.tibia_upper_l.force.Y	femur_lat_tibia_l.tibia_upper_l.force.Z	femur_lat_tibia_l.tibia_upper_l.torque.X	femur_lat_tibia_l.tibia_upper_l.torque.Y	femur_lat_tibia_l.tibia_upper_l.torque.Z	femur_lat_tibia_l.femur_lat_l.force.X	femur_lat_tibia_l.femur_lat_l.force.Y	femur_lat_tibia_l.femur_lat_l.force.Z	femur_lat_tibia_l.femur_lat_l.torque.X	femur_lat_tibia_l.femur_lat_l.torque.Y	femur_lat_tibia_l.femur_lat_l.torque.Z	femur_med_tibia_r.tibia_upper_r.force.X	femur_med_tibia_r.tibia_upper_r.force.Y	femur_med_tibia_r.tibia_upper_r.force.Z	femur_med_tibia_r.tibia_upper_r.torque.X	femur_med_tibia_r.tibia_upper_r.torque.Y	femur_med_tibia_r.tibia_upper_r.torque.Z	femur_med_tibia_r.femur_med_r.force.X	femur_med_tibia_r.femur_med_r.force.Y	femur_med_tibia_r.femur_med_r.force.Z	femur_med_tibia_r.femur_med_r.torque.X	femur_med_tibia_r.femur_med_r.torque.Y	femur_med_tibia_r.femur_med_r.torque.Z	femur_lat_tibia_r.tibia_upper_r.force.X	femur_lat_tibia_r.tibia_upper_r.force.Y	femur_lat_tibia_r.tibia_upper_r.force.Z	femur_lat_tibia_r.tibia_upper_r.torque.X	femur_lat_tibia_r.tibia_upper_r.torque.Y	femur_lat_tibia_r.tibia_upper_r.torque.Z	femur_lat_tibia_r.femur_lat_r.force.X	femur_lat_tibia_r.femur_lat_r.force.Y	femur_lat_tibia_r.femur_lat_r.force.Z	femur_lat_tibia_r.femur_lat_r.torque.X	femur_lat_tibia_r.femur_lat_r.torque.Y	femur_lat_tibia_r.femur_lat_r.torque.Z	femur_lat_meniscii_force_r	femur_med_meniscii_force_r	femur_lat_tibia_force_r	femur_med_tibia_force_r
      0.06980451	      0.00702421	      0.00358463	     12.98656633	     52.04256543	     40.20396770	      0.00000000	      0.00000000	      0.00000000	     -8.96606069	    -23.28027762	      0.00000000	      0.00000000	      0.00000000	      0.00000000	      0.00000000	      0.00000001	      0.00000000	      0.03346640	      0.02696245	      0.02781470	      0.02780686	      0.05634065	      0.06006300	      0.06114765	      0.05346725	      0.05136235	      0.04878955	      0.01525851	      0.01651186	      0.06550154	      0.04489616	      0.07936991	      0.07597155	     -0.10550152	     -0.06962513	     -0.06141147	      0.00450723	      0.04120103	     -0.04483876	     -0.08800377	     -0.06788250	      0.00000079	     -0.32847694	      0.00000060	     -0.00000086	      2.76307435	     50.99597937	     -9.56042239	      5.21997485	     -0.02578839	      1.48581788	     -2.76307435	    -50.99597937	      9.56042239	     -1.74637766	      0.02558040	     -0.48301696	     -3.31599387	     20.97615968	     -3.40468921	      0.94473225	     -0.02138609	     -1.00501789	      3.31599387	    -20.97615968	      3.40468921	      0.28075727	      0.00368718	     -0.29758878	     68.47027502	    285.06980159	     39.62754809	    -23.38921158	      1.72778171	     28.55312171	    -68.47027502	   -285.06980159	    -39.62754809	      9.19986899	     -2.23293258	     -0.40221401	     19.74823819	    154.53194335	     15.93264778	     -3.39291781	     -0.29428645	      7.74811443	    -19.74823819	   -154.53194335	    -15.93264778	     -2.17312447	      0.11826562	      0.85813685	      0.00000000	      0.00000000	      0.00000000	      0.00000000	      0.00000000	      0.00000000	      0.00000000	      0.00000000	      0.00000000	      0.00000000	      0.00000000	      0.00000000	      0.00000000	      0.00000000	      0.00000000	      0.00000000	      0.00000000	      0.00000000	      0.00000000	      0.00000000	      0.00000000	      0.00000000	      0.00000000	      0.00000000	     39.62845789	   -578.49206413	     40.22604756	    -11.03125833	     -0.57354315	      3.79892859	    -39.62845789	    578.49206413	    -40.22604756	     28.45536067	      0.98234555	    -15.08518179	      5.10523722	   -381.33198666	    -98.84393307	     13.62511097	     -0.23084483	      1.57268840	     -5.10523722	    381.33198666	     98.84393307	    -50.16547128	     -0.41700350	     -0.96063181	    295.84339254	    156.60128892	    393.96734713	    581.24144539
      0.07100713	      0.00718522	      0.00367877	     13.37727704	     64.37476363	     52.44657097	      0.00000000	      0.00000000	      0.00000000	    -10.77902079	    -25.87080514	      0.00000000	      0.00000000	      0.00000000	      0.00000000	      0.00000000	      0.00000001	      0.00000000	      0.03348953	      0.02696179	      0.02783774	      0.02780723	      0.05636803	      0.06004760	      0.06108756	      0.05344591	      0.05131799	      0.04871872	      0.01525851	      0.01651186	      0.06550154	      0.04489616	      0.08011574	      0.07594522	     -0.10476063	     -0.06961252	     -0.06095542	      0.00424957	      0.04017781	     -0.04522010	     -0.08879137	     -0.06923570	      0.00000079	     -0.32847694	      0.00000060	     -0.00000086	      2.76307435	     50.99597937	     -9.56042239	      5.21997485	     -0.02578839	      1.48581788	     -2.76307435	    -50.99597937	      9.56042239	     -1.74637766	      0.02558040	     -0.48301696	     -3.31599387	     20.97615968	     -3.40468921	      0.94473225	     -0.02138609	     -1.00501789	      3.31599387	    -20.97615968	      3.40468921	      0.28075727	      0.00368718	     -0.29758878	    111.16626247	    277.40768863	     -0.52314299	     -6.21619816	      2.70747393	     46.58715832	   -111.16626247	   -277.40768863	      0.52314299	      7.37402638	     -3.08751771	     -2.07854414	     39.68243561	    149.83601948	     -5.67505842	      5.58099536	     -0.79610962	     16.12203202	    -39.68243561	   -149.83601948	      5.67505842	     -2.88975312	      0.69844902	      0.11779587	      0.00000000	      0.00000000	      0.00000000	      0.00000000	      0.00000000	      0.00000000	      0.00000000	      0.00000000	      0.00000000	      0.00000000	      0.00000000	      0.00000000	      0.00000000	      0.00000000	      0.00000000	      0.00000000	      0.00000000	      0.00000000	      0.00000000	      0.00000000	      0.00000000	      0.00000000	      0.00000000	      0.00000000	    -19.43497014	   -557.16951422	    101.04650568	    -13.28414756	      0.64791966	      1.45100033	     19.43497014	    557.16951422	   -101.04650568	     53.91803173	     -0.01533925	      9.85243700	    -44.29617688	   -373.61074516	    -54.00214894	     11.57946293	     -1.32507347	     -0.35779317	     44.29617688	    373.61074516	     54.00214894	    -30.97826044	      0.79827869	     19.91458446	    298.85320360	    155.10555991	    380.08337543	    566.59154772
      0.07220975	      0.00736634	      0.00377437	     13.77582051	     55.50838851	     41.84570040	      0.00000000	      0.00000000	      0.00000000	     -7.73491801	    -23.88713954	      0.00000000	      0.00000000	      0.00000000	      0.00000000	      0.00000000	      0.00000001	      0.00000000	      0.03353219	      0.02698141	      0.02784797	      0.02779512	      0.05639510	      0.06003101	      0.06102586	      0.05341945	      0.05126845	      0.04864200	      0.01525851	      0.01651186	      0.06550154	      0.04489616	      0.08149168	      0.07672823	     -0.10443156	     -0.07001789	     -0.06050448	      0.00397209	      0.03912709	     -0.04569279	     -0.08967107	     -0.07070129	      0.00000079	     -0.32847694	      0.00000060	     -0.00000086	      2.76307435	     50.99597937	     -9.56042239	      5.21997485	     -0.02578839	      1.48581788	     -2.76307435	    -50.99597937	      9.56042239	     -1.74637766	      0.02558040	     -0.48301696	     -3.31599387	     20.97615968	     -3.40468921	      0.94473225	     -0.02138609	     -1.00501789	      3.31599387	    -20.97615968	      3.40468921	      0.28075727	      0.00368718	     -0.29758878	     67.27515932	    288.11364675	     39.65439856	    -23.45306909	      1.68517146	     28.02070716	    -67.27515932	   -288.11364675	    -39.65439856	      9.25422646	     -2.20013684	     -0.19030259	     25.93967629	    158.17871968	     14.51288449	     -2.73296305	     -0.42754116	     10.29695351	    -25.93967629	   -158.17871968	    -14.51288449	     -2.28184774	      0.23452949	      0.76996485	      0.00000000	      0.00000000	      0.00000000	      0.00000000	      0.00000000	      0.00000000	      0.00000000	      0.00000000	      0.00000000	      0.00000000	      0.00000000	      0.00000000	      0.00000000	      0.00000000	      0.00000000	      0.00000000	      0.00000000	      0.00000000	      0.00000000	      0.00000000	      0.00000000	      0.00000000	      0.00000000	      0.00000000	     23.57373519	   -582.97827153	     40.43411452	    -11.13033593	     -0.27424516	      3.59019282	    -23.57373519	    582.97827153	    -40.43411452	     28.63002893	      0.64416433	     -8.45930614	      4.79920110	   -355.61082814	    -91.55035991	     12.66761693	     -0.26657624	      1.69248859	     -4.79920110	    355.61082814	     91.55035991	    -46.51544059	     -0.37049653	     -0.99224597	    298.50945015	    160.94719004	    367.23774564	    584.85408752
      0.07341237	      0.00753180	      0.00387020	     14.17606562	     65.74317049	     51.88713472	      0.00000000	      0.00000000	      0.00000000	     -8.74239141	    -25.71796013	      0.00000000	      0.00000000	      0.00000000	      0.00000000	      0.00000000	      0.00000001	      0.00000000	      0.03355717	      0.02698222	      0.02787341	      0.02779689	      0.05642664	      0.06001829	      0.06096739	      0.05340035	      0.05122551	      0.04857185	      0.01525851	      0.01651186	      0.06550154	      0.04489616	      0.08229730	      0.07676040	     -0.10361348	     -0.06995876	     -0.05997902	      0.00375948	      0.03813153	     -0.04603400	     -0.09043361	     -0.07204164	      0.00000079	     -0.32847694	      0.00000060	     -0.00000086	      2.76307435	     50.99597937	     -9.56042239	      5.21997485	     -0.02578839	      1.48581788	     -2.76307435	    -50.99597937	      9.56042239	     -1.74637766	      0.02558040	     -0.48301696	     -3.31599387	     20.97615968	     -3.40468921	      0.94473225	     -0.02138609	     -1.00501789	      3.31599387	    -20.97615968	      3.40468921	      0.28075727	      0.00368718	     -0.29758878	     99.47174716	    282.62000557	      4.35446093	     -8.39171617	      2.41582799	     41.62147188	    -99.47174716	   -282.62000557	     -4.35446093	      7.68985544	     -2.78789505	     -1.43994073	     40.05228890	    151.68805995	     -4.22419771	      4.98035098	     -0.79242007	     16.22263006	    -40.05228890	   -151.68805995	      4.22419771	     -2.84336200	      0.68645592	      0.23441309	      0.00000000	      0.00000000	      0.00000000	      0.00000000	      0.00000000	      0.00000000	      0.00000000	      0.00000000	      0.00000000	      0.00000000	      0.00000000	      0.00000000	      0.00000000	      0.00000000	      0.00000000	      0.00000000	      0.00000000	      0.00000000	      0.00000000	      0.00000000	      0.00000000	      0.00000000	      0.00000000	      0.00000000	    -20.46878206	   -564.10698258	     94.30684157	    -13.11467643	      0.71761836	      1.87749382	     20.46878206	    564.10698258	    -94.30684157	     51.17316711	     -0.09581155	     10.10229998	    -29.56175254	   -346.82522744	    -54.57884127	     10.92059976	     -0.98858565	      0.36132454	     29.56175254	    346.82522744	     54.57884127	    -30.64424754	      0.48713717	     13.50816337	    299.64588660	    156.94361160	    352.33575679	    572.30187768
